<?xml version="1.0" standalone="no"?><!DOCTYPE svg PUBLIC "-//W3C//DTD SVG 1.1//EN" "http://www.w3.org/Graphics/SVG/1.1/DTD/svg11.dtd"><svg t="1496991582086" class="icon" style="" viewBox="0 0 1034 1024" version="1.1" xmlns="http://www.w3.org/2000/svg" p-id="2945" xmlns:xlink="http://www.w3.org/1999/xlink" width="48.46875" height="48"><defs><style type="text/css"></style></defs><path d="M522.666667 1024C240 1024 10.666667 794.666667 10.666667 512S240 0 522.666667 0s512 229.333333 512 512-229.333333 512-512 512z m13.866666-710.4l-7.466666 41.6H204.8l-62.933333 354.133333h362.666666l7.466667-41.6h325.333333l62.933334-354.133333H536.533333z m183.466667 76.8c-30.933333 0-59.733333 8.533333-84.266667 26.666667-24.533333 18.133333-40.533333 39.466667-45.866666 67.2-5.333333 27.733333 1.066667 50.133333 21.333333 68.266666 18.133333 17.066667 40.533333 24.533333 66.133333 24.533334 22.4 0 42.666667-6.4 62.933334-18.133334 20.266667-12.8 33.066667-27.733333 38.4-44.8h-73.6l7.466666-35.2h121.6l-2.133333 8.533334c-4.266667 18.133333-9.6 35.2-18.133333 49.066666-7.466667 12.8-19.2 25.6-34.133334 37.333334-33.066667 25.6-70.4 38.4-113.066666 38.4-41.6 0-73.6-12.8-98.133334-37.333334-24.533333-25.6-33.066667-55.466667-25.6-90.666666 7.466667-36.266667 28.8-66.133333 64-91.733334 35.2-25.6 74.666667-37.333333 117.333334-37.333333 23.466667 0 43.733333 4.266667 61.866666 11.733333 17.066667 7.466667 34.133333 20.266667 48 38.4L800 430.933333c-19.2-27.733333-45.866667-40.533333-80-40.533333zM462.933333 660.266667l-20.266666-58.666667H301.866667l-51.2 58.666667h-53.333334l225.066667-257.066667 60.8 164.266667-17.066667 92.8h-3.2z m-60.8-174.933334L330.666667 567.466667h100.266666l-28.8-82.133334z" p-id="2946" fill="#914fce"></path></svg>