<?xml version="1.0" standalone="no"?><!DOCTYPE svg PUBLIC "-//W3C//DTD SVG 1.1//EN" "http://www.w3.org/Graphics/SVG/1.1/DTD/svg11.dtd"><svg t="1496991607013" class="icon" style="" viewBox="0 0 1034 1024" version="1.1" xmlns="http://www.w3.org/2000/svg" p-id="3086" xmlns:xlink="http://www.w3.org/1999/xlink" width="48.46875" height="48"><defs><style type="text/css"></style></defs><path d="M522.666667 1024C240 1024 10.666667 794.666667 10.666667 512S240 0 522.666667 0s512 229.333333 512 512-229.333333 512-512 512z m226.133333-666.666667c0-7.466667-3.2-13.866667-9.6-19.2-3.2-3.2-7.466667-4.266667-11.733333-5.333333-5.333333-1.066667-11.733333-1.066667-17.066667 2.133333-7.466667 4.266667-11.733333 10.666667-13.866667 19.2-1.066667 3.2-1.066667 6.4 0 10.666667 0 6.4 2.133333 11.733333 6.4 16 4.266667 4.266667 7.466667 8.533333 11.733334 11.733333 2.133333 2.133333 4.266667 4.266667 5.333333 6.4 2.133333 2.133333 3.2 1.066667 4.266667 0 1.066667-1.066667 2.133333-2.133333 3.2-4.266666 4.266667-4.266667 8.533333-7.466667 11.733333-11.733334 6.4-6.4 9.6-13.866667 8.533333-22.4 1.066667-1.066667 1.066667-2.133333 1.066667-3.2zM949.333333 492.8c-5.333333-11.733333-11.733333-22.4-19.2-32-5.333333-6.4-10.666667-12.8-17.066666-18.133333-9.6-8.533333-20.266667-16-33.066667-21.333334-7.466667-3.2-14.933333-6.4-23.466667-7.466666-6.4-1.066667-11.733333-2.133333-18.133333-2.133334-8.533333-1.066667-16-1.066667-24.533333 0h-5.333334c-6.4 1.066667-12.8 3.2-19.2 4.266667-18.133333 5.333333-33.066667 14.933333-46.933333 28.8l-2.133333 2.133333c-1.066667 1.066667-2.133333 1.066667-3.2-1.066666-1.066667-1.066667-1.066667-2.133333-2.133334-3.2-7.466667-13.866667-19.2-20.266667-33.066666-21.333334-3.2 0-4.266667 1.066667-4.266667 4.266667v57.6c0 3.2-1.066667 5.333333-3.2 7.466667l-14.933333 14.933333-33.066667 33.066667-2.133333 2.133333c-1.066667 1.066667-2.133333 0-3.2-1.066667 0-2.133333-1.066667-3.2-1.066667-5.333333 0-6.4-1.066667-12.8-3.2-19.2-1.066667-3.2-2.133333-7.466667-3.2-10.666667-3.2-8.533333-6.4-17.066667-10.666667-25.6-4.266667-7.466667-8.533333-13.866667-13.866666-20.266666-6.4-7.466667-13.866667-14.933333-21.333334-21.333334-9.6-7.466667-20.266667-12.8-30.933333-18.133333-11.733333-4.266667-23.466667-7.466667-36.266667-8.533333-10.666667-1.066667-20.266667-1.066667-30.933333 1.066666-9.6 2.133333-18.133333 4.266667-27.733333 7.466667-12.8 5.333333-25.6 12.8-36.266667 23.466667l-4.266667 4.266666c-1.066667 0-2.133333 1.066667-2.133333 1.066667-1.066667 0-1.066667-1.066667-1.066667-2.133333v-2.133334c0-13.866667 1.066667-26.666667 0-40.533333-1.066667-6.4-1.066667-13.866667-1.066666-20.266667-1.066667-8.533333-3.2-17.066667-6.4-24.533333-4.266667-9.6-9.6-16-19.2-21.333333-5.333333-2.133333-10.666667-3.2-14.933334-4.266667-3.2-1.066667-5.333333 0-5.333333 5.333333v160c0 2.133333 1.066667 3.2 2.133333 4.266667 1.066667 1.066667 3.2 1.066667 4.266667 2.133333 10.666667 4.266667 22.4 5.333333 33.066667 3.2 9.6-1.066667 18.133333-4.266667 26.666666-9.6 6.4-4.266667 12.8-8.533333 18.133334-14.933333 5.333333-6.4 11.733333-10.666667 18.133333-13.866667 9.6-5.333333 20.266667-7.466667 30.933333-7.466666 8.533333-1.066667 16 1.066667 23.466667 2.133333 18.133333 4.266667 34.133333 14.933333 44.8 30.933333 12.8 18.133333 19.2 38.4 18.133333 60.8 0 6.4-1.066667 12.8-3.2 18.133334-4.266667 14.933333-11.733333 28.8-21.333333 39.466666-8.533333 9.6-19.2 14.933333-29.866667 20.266667-8.533333 4.266667-18.133333 6.4-28.8 6.4-6.4 0-12.8 0-19.2-2.133333-8.533333-2.133333-17.066667-6.4-24.533333-10.666667-5.333333-3.2-11.733333-7.466667-16-12.8l-44.8-48c-7.466667-7.466667-13.866667-14.933333-21.333333-22.4-5.333333-5.333333-10.666667-10.666667-14.933334-16-12.8-13.866667-25.6-27.733333-38.4-40.533333-7.466667-7.466667-14.933333-16-21.333333-23.466667-5.333333-6.4-11.733333-11.733333-17.066667-17.066667-5.333333-4.266667-9.6-9.6-16-12.8-11.733333-7.466667-24.533333-13.866667-37.333333-17.066666-6.4-2.133333-13.866667-3.2-20.266667-4.266667-6.4 0-12.8-1.066667-19.2 0-4.266667 1.066667-9.6 1.066667-13.866666 2.133333-12.8 2.133333-24.533333 6.4-35.2 12.8-7.466667 4.266667-14.933333 9.6-22.4 14.933334-1.066667 1.066667-2.133333 2.133333-4.266667 1.066666-1.066667-1.066667-1.066667-2.133333-1.066667-4.266666v-45.866667-6.4c0-2.133333 0-3.2-1.066666-5.333333 0-5.333333-1.066667-9.6-2.133334-14.933334-4.266667-12.8-10.666667-22.4-23.466666-28.8-5.333333-2.133333-10.666667-3.2-16-4.266666-2.133333 0-3.2 1.066667-3.2 3.2v216.533333c0 7.466667 1.066667 16 2.133333 23.466667C85.333333 586.666667 88.533333 597.333333 92.8 608c4.266667 10.666667 10.666667 21.333333 18.133333 30.933333 5.333333 7.466667 11.733333 13.866667 18.133334 19.2 6.4 5.333333 12.8 9.6 20.266666 13.866667s14.933333 7.466667 23.466667 10.666667c9.6 3.2 19.2 5.333333 29.866667 5.333333h14.933333c7.466667 0 16-1.066667 23.466667-3.2 18.133333-4.266667 35.2-12.8 50.133333-25.6 6.4-5.333333 11.733333-11.733333 17.066667-17.066667 12.8-12.8 25.6-26.666667 38.4-39.466666 3.2-3.2 3.2-4.266667-1.066667-6.4-6.4-2.133333-12.8-3.2-20.266667-3.2-8.533333 0-17.066667 0-24.533333 2.133333-8.533333 2.133333-14.933333 5.333333-22.4 11.733333-4.266667 4.266667-8.533333 7.466667-13.866667 11.733334l-12.8 9.6c-8.533333 5.333333-17.066667 8.533333-26.666666 9.6-8.533333 1.066667-16 2.133333-24.533334 1.066666-20.266667-3.2-38.4-13.866667-52.266666-29.866666-14.933333-18.133333-22.4-40.533333-20.266667-65.066667 1.066667-7.466667 2.133333-14.933333 4.266667-22.4 5.333333-16 13.866667-29.866667 26.666666-40.533333 13.866667-11.733333 30.933333-18.133333 49.066667-19.2 6.4-1.066667 11.733333 0 18.133333 1.066666 9.6 2.133333 19.2 5.333333 27.733334 10.666667 4.266667 3.2 9.6 6.4 13.866666 10.666667l57.6 60.8c11.733333 11.733333 23.466667 24.533333 34.133334 36.266666 2.133333 2.133333 3.2 4.266667 5.333333 5.333334 11.733333 11.733333 22.4 23.466667 34.133333 35.2 12.8 13.866667 26.666667 28.8 40.533334 41.6 3.2 2.133333 6.4 5.333333 9.6 7.466666 6.4 3.2 13.866667 7.466667 20.266666 9.6 8.533333 3.2 17.066667 6.4 26.666667 7.466667 10.666667 2.133333 20.266667 2.133333 30.933333 1.066667 6.4 0 12.8-2.133333 19.2-3.2 11.733333-3.2 23.466667-8.533333 34.133334-14.933334 6.4-4.266667 11.733333-7.466667 17.066666-12.8 8.533333-8.533333 16-16 24.533334-23.466666 6.4-6.4 12.8-12.8 20.266666-19.2 7.466667-7.466667 14.933333-13.866667 21.333334-21.333334l16-16 16-16 2.133333-2.133333c2.133333-1.066667 3.2-1.066667 3.2 2.133333v124.8c0 2.133333 1.066667 3.2 3.2 3.2 3.2 0 6.4-1.066667 9.6-1.066666 7.466667-2.133333 13.866667-5.333333 19.2-11.733334 9.6-10.666667 13.866667-24.533333 13.866667-39.466666 1.066667-35.2 0-69.333333 0-104.533334v-18.133333c0-3.2 1.066667-5.333333 3.2-7.466667 1.066667-1.066667 3.2-2.133333 4.266666-4.266666 7.466667-6.4 13.866667-13.866667 21.333334-20.266667 6.4-6.4 13.866667-10.666667 21.333333-14.933333 13.866667-6.4 28.8-8.533333 43.733333-6.4 9.6 1.066667 19.2 4.266667 27.733334 8.533333 17.066667 8.533333 28.8 21.333333 37.333333 39.466667 6.4 13.866667 9.6 27.733333 9.6 42.666666v68.266667c0 8.533333 0 17.066667 2.133333 26.666667 1.066667 6.4 3.2 13.866667 6.4 19.2 2.133333 4.266667 4.266667 8.533333 8.533334 11.733333 7.466667 6.4 14.933333 10.666667 24.533333 11.733333 5.333333 1.066667 6.4 0 6.4-6.4V546.133333c0-8.533333-1.066667-16-2.133333-24.533333-4.266667-9.6-7.466667-19.2-11.733334-28.8z" p-id="3087" fill="#914fce"></path></svg>