<?xml version="1.0" standalone="no"?><!DOCTYPE svg PUBLIC "-//W3C//DTD SVG 1.1//EN" "http://www.w3.org/Graphics/SVG/1.1/DTD/svg11.dtd"><svg t="1496991627804" class="icon" style="" viewBox="0 0 1034 1024" version="1.1" xmlns="http://www.w3.org/2000/svg" p-id="3227" xmlns:xlink="http://www.w3.org/1999/xlink" width="48.46875" height="48"><defs><style type="text/css"></style></defs><path d="M522.666667 1024C240 1024 10.666667 794.666667 10.666667 512S240 0 522.666667 0s512 229.333333 512 512-229.333333 512-512 512zM284.8 237.866667c0 1.066667-1.066667 1.066667-1.066667 2.133333 0 0 1.066667-1.066667 1.066667-2.133333z m531.2 234.666666c0-7.466667-2.133333-14.933333-7.466667-20.266666-2.133333-3.2-5.333333-7.466667-9.6-11.733334-10.666667-11.733333-36.266667-39.466667-75.733333-71.466666l44.8-48c2.133333-2.133333 4.266667-5.333333 4.266667-9.6s-2.133333-8.533333-6.4-10.666667h-1.066667c-71.466667-42.666667-185.6-37.333333-215.466667-34.133333-65.066667-26.666667-142.933333-45.866667-231.466666-48h-1.066667c-13.866667 0-26.666667 8.533333-30.933333 20.266666 0 1.066667-1.066667 1.066667-1.066667 2.133334s-1.066667 2.133333-1.066667 3.2c-53.333333 158.933333-39.466667 298.666667-17.066666 389.333333 19.2 78.933333 45.866667 134.4 57.6 155.733333 5.333333 9.6 14.933333 16 25.6 17.066667h2.133333c17.066667 1.066667 33.066667 2.133333 49.066667 2.133333 166.4 0 267.733333-80 324.266666-147.2 59.733333-70.4 85.333333-146.133333 91.733334-181.333333v-1.066667c-1.066667-3.2-1.066667-5.333333-1.066667-6.4zM520.533333 631.466667c-7.466667 21.333333-19.2 41.6-35.2 58.666666l-5.333333 5.333334-12.8-62.933334 53.333333-1.066666zM458.666667 562.133333c22.4-12.8 40.533333-25.6 55.466666-37.333333l1.066667 60.8-56.533333-23.466667z m-83.2 36.266667z m68.266666-27.733333l-10.666666 66.133333-56.533334-37.333333c23.466667-8.533333 46.933333-18.133333 67.2-28.8zM384 681.6l56.533333 41.6c-21.333333 10.666667-44.8 16-72.533333 18.133333l16-59.733333z m321.066667-38.4c-53.333333 62.933333-149.333333 138.666667-305.066667 138.666667h-13.866667c-9.6 0-20.266667-1.066667-30.933333-2.133334-5.333333-1.066667-8.533333-3.2-10.666667-7.466666-1.066667-2.133333-3.2-5.333333-4.266666-8.533334h6.4c66.133333 0 118.4-19.2 154.666666-58.666666 69.333333-74.666667 58.666667-195.2 55.466667-219.733334-1.066667-6.4-6.4-10.666667-12.8-10.666666-3.2 0-6.4 1.066667-8.533333 3.2-18.133333 17.066667-119.466667 110.933333-250.666667 115.2-13.866667-73.6-19.2-172.8 7.466667-284.8 2.133333-8.533333 9.6-14.933333 18.133333-14.933334 2.133333 0 4.266667 0 6.4 1.066667h1.066667c26.666667 10.666667 67.2 28.8 114.133333 57.6-6.4 11.733333-9.6 24.533333-9.6 38.4 0 43.733333 36.266667 78.933333 80 78.933333 22.4 0 42.666667-9.6 56.533333-23.466666 59.733333 53.333333 109.866667 114.133333 148.266667 181.333333 1.066667 2.133333 1.066667 4.266667 1.066667 6.4 0 4.266667-1.066667 7.466667-3.2 9.6zM501.333333 450.133333c-33.066667 0-60.8-26.666667-60.8-59.733333S467.2 330.666667 501.333333 330.666667c33.066667 0 60.8 26.666667 60.8 59.733333-1.066667 33.066667-27.733333 59.733333-60.8 59.733333z m0-103.466666c-24.533333 0-43.733333 19.2-43.733333 43.733333s19.2 43.733333 43.733333 43.733333 43.733333-19.2 43.733334-43.733333-19.2-43.733333-43.733334-43.733333zM356.266667 604.8L329.6 661.333333 288 615.466667v-1.066667c23.466667-1.066667 45.866667-4.266667 68.266667-9.6z" p-id="3228" fill="#914fce"></path></svg>