<?xml version="1.0" standalone="no"?><!DOCTYPE svg PUBLIC "-//W3C//DTD SVG 1.1//EN" "http://www.w3.org/Graphics/SVG/1.1/DTD/svg11.dtd"><svg t="1496991711853" class="icon" style="" viewBox="0 0 1034 1024" version="1.1" xmlns="http://www.w3.org/2000/svg" p-id="3791" xmlns:xlink="http://www.w3.org/1999/xlink" width="48.46875" height="48"><defs><style type="text/css"></style></defs><path d="M522.666667 1024C240 1024 10.666667 794.666667 10.666667 512S240 0 522.666667 0s512 229.333333 512 512-229.333333 512-512 512z m349.866666-449.066667c4.266667 5.333333 11.733333 8.533333 20.266667 8.533334 5.333333 0 10.666667-1.066667 14.933333-3.2 4.266667-2.133333 6.4-6.4 8.533334-10.666667l-13.866667-2.133333c-1.066667 2.133333-2.133333 4.266667-3.2 5.333333-1.066667 1.066667-3.2 2.133333-5.333333 2.133333-3.2 0-6.4-1.066667-8.533334-3.2-2.133333-2.133333-3.2-5.333333-3.2-8.533333H917.333333c0-9.6-2.133333-17.066667-6.4-22.4-4.266667-4.266667-10.666667-7.466667-19.2-7.466667-7.466667 0-12.8 2.133333-17.066666 6.4-4.266667 4.266667-6.4 10.666667-6.4 19.2-1.066667 6.4 0 11.733333 4.266666 16z m-136.533333 4.266667c3.2 3.2 7.466667 4.266667 12.8 4.266667 3.2 0 6.4 0 8.533333-2.133334 3.2-1.066667 5.333333-3.2 7.466667-5.333333v1.066667c1.066667 2.133333 1.066667 3.2 1.066667 4.266666h13.866666c-1.066667-2.133333-2.133333-4.266667-2.133333-6.4 0-2.133333-1.066667-5.333333-1.066667-9.6v-14.933333c0-5.333333-1.066667-9.6-2.133333-11.733333-1.066667-2.133333-3.2-4.266667-6.4-5.333334-3.2-1.066667-7.466667-2.133333-13.866667-2.133333-6.4 0-11.733333 1.066667-16 3.2-3.2 2.133333-6.4 5.333333-7.466666 10.666667l12.8 2.133333c1.066667-2.133333 2.133333-4.266667 3.2-4.266667 1.066667-1.066667 3.2-1.066667 5.333333-1.066666 3.2 0 6.4 0 7.466667 1.066666 1.066667 1.066667 2.133333 3.2 2.133333 5.333334v1.066666c-2.133333 1.066667-7.466667 2.133333-13.866667 3.2-5.333333 1.066667-8.533333 2.133333-10.666666 3.2-2.133333 1.066667-4.266667 3.2-6.4 5.333334-1.066667 2.133333-2.133333 4.266667-2.133334 7.466666 3.2 4.266667 4.266667 7.466667 7.466667 10.666667z m-70.4-12.8c2.133333 5.333333 8.533333 9.6 12.8 12.8 5.333333 3.2 10.666667 4.266667 17.066667 4.266667 5.333333 0 10.666667-1.066667 14.933333-3.2 5.333333-2.133333 8.533333-4.266667 11.733333-7.466667v-26.666667h-22.4v11.733334h7.466667v7.466666c-2.133333 2.133333-2.133333 3.2-4.266667 4.266667s-5.333333 2.133333-7.466666 2.133333c-5.333333 0-7.466667-2.133333-10.666667-6.4-3.2-4.266667-5.333333-9.6-5.333333-18.133333 0-7.466667 2.133333-12.8 5.333333-17.066667 3.2-4.266667 5.333333-5.333333 10.666667-5.333333 3.2 0 6.4 1.066667 8.533333 3.2 2.133333 2.133333 4.266667 4.266667 5.333333 7.466667l12.8-2.133334c-1.066667-6.4-4.266667-10.666667-8.533333-14.933333-4.266667-3.2-10.666667-5.333333-18.133333-5.333333-6.4 0-10.666667 1.066667-14.933334 3.2-5.333333 3.2-11.733333 7.466667-13.866666 12.8-3.2 5.333333-4.266667 11.733333-4.266667 19.2 0 6.4 1.066667 11.733333 3.2 18.133333z m-515.2-83.2c-2.133333 0-4.266667 0-6.4 1.066667-8.533333 2.133333-16 6.4-22.4 13.866666-7.466667 8.533333-11.733333 21.333333-11.733333 35.2 0 13.866667 4.266667 25.6 11.733333 35.2 6.4 7.466667 13.866667 11.733333 22.4 13.866667 12.8 2.133333 25.6-3.2 35.2-13.866667 7.466667-8.533333 11.733333-21.333333 11.733333-35.2 0-13.866667-4.266667-25.6-11.733333-35.2-7.466667-8.533333-18.133333-14.933333-28.8-14.933333z m90.666667-102.4c-7.466667-9.6-19.2-16-30.933334-16-2.133333 0-4.266667 0-6.4 1.066667-9.6 2.133333-18.133333 7.466667-24.533333 14.933333-7.466667 9.6-12.8 23.466667-12.8 38.4s5.333333 28.8 12.8 38.4c6.4 7.466667 14.933333 13.866667 24.533333 14.933333 13.866667 2.133333 27.733333-3.2 37.333334-14.933333 7.466667-9.6 12.8-23.466667 12.8-38.4s-4.266667-28.8-12.8-38.4z m45.866666 76.8c-2.133333 0-4.266667 0-6.4 1.066667-6.4 1.066667-11.733333 5.333333-16 10.666666-5.333333 6.4-9.6 16-9.6 26.666667s3.2 20.266667 9.6 26.666667c4.266667 5.333333 9.6 8.533333 16 10.666666 10.666667 2.133333 21.333333-1.066667 28.8-10.666666 5.333333-6.4 9.6-16 9.6-26.666667s-3.2-20.266667-9.6-26.666667c-5.333333-7.466667-13.866667-11.733333-22.4-11.733333z m85.333334-85.333333c-5.333333-7.466667-13.866667-11.733333-22.4-11.733334h-4.266667c-7.466667 1.066667-13.866667 5.333333-18.133333 10.666667-5.333333 7.466667-9.6 16-9.6 26.666667s3.2 20.266667 9.6 26.666666c4.266667 5.333333 10.666667 9.6 18.133333 10.666667 9.6 1.066667 19.2-2.133333 26.666667-10.666667 5.333333-7.466667 9.6-17.066667 9.6-26.666666-1.066667-9.6-4.266667-19.2-9.6-25.6z m3.2 86.4c-3.2-4.266667-7.466667-6.4-12.8-6.4s-9.6 2.133333-12.8 6.4c-3.2 4.266667-5.333333 9.6-5.333334 16s2.133333 11.733333 5.333334 16c3.2 4.266667 7.466667 6.4 12.8 6.4s9.6-2.133333 12.8-6.4c3.2-4.266667 5.333333-9.6 5.333333-16s-1.066667-11.733333-5.333333-16z m64-19.2c-6.4 0-11.733333 3.2-16 8.533333-4.266667 5.333333-6.4 11.733333-6.4 19.2s2.133333 13.866667 6.4 19.2c4.266667 5.333333 9.6 7.466667 16 8.533333 6.4 0 11.733333-3.2 16-8.533333 4.266667-5.333333 6.4-11.733333 6.4-19.2s-2.133333-13.866667-6.4-19.2c-4.266667-6.4-9.6-8.533333-16-8.533333z m40.533333-50.133334c-3.2-4.266667-8.533333-6.4-13.866667-7.466666-5.333333 0-10.666667 2.133333-13.866666 7.466666-3.2 4.266667-5.333333 10.666667-5.333334 17.066667 0 6.4 2.133333 12.8 5.333334 17.066667 3.2 4.266667 8.533333 7.466667 13.866666 7.466666s9.6-3.2 13.866667-7.466666c3.2-4.266667 5.333333-10.666667 5.333333-17.066667 1.066667-7.466667-2.133333-12.8-5.333333-17.066667z m146.133333-30.933333h-48c0 34.133333-17.066667 38.4-25.6 39.466667v-39.466667h-48v117.333333h48v-39.466666c8.533333 0 25.6 5.333333 25.6 39.466666h48s6.4-35.2-20.266666-58.666666c26.666667-24.533333 20.266667-58.666667 20.266666-58.666667z m80 34.133333c-19.2-20.266667-58.666667-10.666667-69.333333 14.933334-10.666667 26.666667 0 59.733333 23.466667 67.2 23.466667 7.466667 38.4 5.333333 53.333333-6.4 0 0 12.8-9.6 8.533333-27.733334 0 0-27.733333 26.666667-43.733333-3.2h44.8c0-1.066667 2.133333-24.533333-17.066667-44.8z m19.2 100.266667h-6.4c-12.8-1.066667-26.666667-1.066667-40.533333-1.066667h-19.2-44.8c-6.4 0-11.733333 0-18.133333 1.066667-6.4 0-12.8 1.066667-19.2 1.066667h-5.333334c-4.266667 0-8.533333 1.066667-13.866666 1.066666-2.133333 0-5.333333 0-7.466667 1.066667-4.266667 0-8.533333 1.066667-12.8 1.066667-2.133333 0-5.333333 0-7.466667 1.066666-4.266667 0-8.533333 1.066667-12.8 1.066667-2.133333 0-4.266667 0-7.466666 1.066667-6.4 1.066667-12.8 1.066667-19.2 2.133333-2.133333 0-4.266667 1.066667-5.333334 1.066667h-1.066666c-4.266667 1.066667-9.6 1.066667-13.866667 2.133333-3.2 0-5.333333 1.066667-8.533333 1.066667-4.266667 1.066667-7.466667 1.066667-11.733334 2.133333-3.2 0-6.4 1.066667-8.533333 1.066667-4.266667 1.066667-7.466667 1.066667-11.733333 2.133333-3.2 1.066667-5.333333 1.066667-8.533334 2.133333-4.266667 1.066667-8.533333 2.133333-13.866666 3.2h-1.066667c-2.133333 0-4.266667 1.066667-6.4 1.066667-6.4 1.066667-12.8 3.2-20.266667 4.266667-2.133333 1.066667-5.333333 1.066667-7.466666 2.133333l-12.8 3.2c-3.2 1.066667-5.333333 2.133333-8.533334 2.133333-4.266667 1.066667-7.466667 2.133333-11.733333 3.2-3.2 1.066667-5.333333 2.133333-8.533333 3.2-4.266667 1.066667-8.533333 3.2-12.8 4.266667-2.133333 1.066667-5.333333 2.133333-7.466667 2.133333-6.4 2.133333-12.8 4.266667-19.2 7.466667-1.066667 0-3.2 1.066667-4.266667 2.133333-5.333333 2.133333-10.666667 4.266667-14.933333 6.4-2.133333 1.066667-5.333333 2.133333-7.466667 3.2-4.266667 2.133333-8.533333 3.2-11.733333 5.333334-2.133333 1.066667-5.333333 2.133333-7.466667 3.2-4.266667 2.133333-8.533333 4.266667-11.733333 6.4-2.133333 1.066667-4.266667 2.133333-7.466667 4.266666-4.266667 2.133333-9.6 5.333333-13.866666 7.466667-2.133333 1.066667-3.2 2.133333-5.333334 3.2-6.4 3.2-11.733333 7.466667-18.133333 10.666667-2.133333 1.066667-3.2 2.133333-4.266667 3.2-4.266667 3.2-8.533333 5.333333-12.8 8.533333-2.133333 1.066667-4.266667 3.2-6.4 4.266667-4.266667 3.2-7.466667 5.333333-10.666666 8.533333-2.133333 2.133333-4.266667 3.2-6.4 5.333333-4.266667 3.2-7.466667 6.4-10.666667 9.6-2.133333 1.066667-3.2 3.2-5.333333 4.266667-5.333333 5.333333-10.666667 9.6-14.933334 14.933333h103.466667v-1.066666-1.066667s0-1.066667 1.066667-1.066667l1.066666-1.066666 1.066667-1.066667s0-1.066667 1.066667-1.066667c0-1.066667 1.066667-1.066667 1.066666-2.133333l1.066667-1.066667 2.133333-2.133333 1.066667-1.066667c1.066667-1.066667 1.066667-2.133333 2.133333-2.133333l1.066667-1.066667 3.2-3.2 1.066667-1.066666 3.2-3.2 1.066666-1.066667 4.266667-4.266667 1.066667-1.066666c1.066667-1.066667 3.2-3.2 5.333333-4.266667 6.4-6.4 14.933333-12.8 23.466667-19.2l1.066666-1.066667c4.266667-3.2 9.6-6.4 14.933334-10.666666 10.666667-7.466667 22.4-13.866667 36.266666-21.333334h1.066667c6.4-3.2 13.866667-7.466667 20.266667-10.666666 1.066667 0 1.066667 0 2.133333-1.066667 7.466667-3.2 14.933333-7.466667 23.466667-10.666667h1.066666c8.533333-3.2 17.066667-7.466667 25.6-10.666666 5.333333-2.133333 9.6-3.2 14.933334-5.333334 1.066667 0 1.066667 0 2.133333-1.066666 4.266667-1.066667 9.6-3.2 14.933333-4.266667 1.066667 0 2.133333-1.066667 3.2-1.066667 4.266667-1.066667 9.6-3.2 14.933334-4.266666 1.066667 0 2.133333-1.066667 4.266666-1.066667 4.266667-1.066667 9.6-2.133333 13.866667-4.266667 2.133333 0 3.2-1.066667 5.333333-1.066666 4.266667-1.066667 9.6-2.133333 13.866667-3.2 2.133333 0 4.266667-1.066667 5.333333-1.066667 4.266667-1.066667 9.6-2.133333 14.933334-3.2 2.133333 0 4.266667-1.066667 6.4-1.066667 4.266667-1.066667 9.6-2.133333 14.933333-2.133333 2.133333 0 4.266667-1.066667 6.4-1.066667-36.266667 7.466667-73.6 19.2-108.8 34.133334h-1.066667c-5.333333 2.133333-10.666667 4.266667-16 7.466666-1.066667 0-2.133333 1.066667-3.2 1.066667-4.266667 2.133333-9.6 4.266667-13.866666 7.466667-1.066667 1.066667-3.2 1.066667-4.266667 2.133333l-12.8 6.4c-2.133333 1.066667-3.2 2.133333-5.333333 3.2-4.266667 2.133333-7.466667 4.266667-11.733334 6.4-2.133333 1.066667-4.266667 2.133333-5.333333 3.2-3.2 2.133333-7.466667 4.266667-10.666667 7.466667-2.133333 1.066667-4.266667 3.2-6.4 4.266666-3.2 2.133333-6.4 5.333333-9.6 7.466667-2.133333 1.066667-4.266667 3.2-6.4 4.266667-3.2 2.133333-6.4 5.333333-9.6 7.466666-2.133333 2.133333-4.266667 3.2-6.4 5.333334-3.2 3.2-6.4 5.333333-9.6 8.533333-2.133333 2.133333-4.266667 3.2-5.333333 5.333333l-9.6 9.6c-1.066667 2.133333-3.2 3.2-4.266667 5.333334l-1.066666 1.066666-1.066667 1.066667-1.066667 1.066667-1.066666 1.066666h120.533333v-1.066666-1.066667-1.066667-1.066666c0-1.066667 1.066667-2.133333 1.066667-3.2 0-1.066667 1.066667-2.133333 1.066666-4.266667 1.066667-1.066667 1.066667-3.2 2.133334-4.266667 1.066667-2.133333 1.066667-3.2 2.133333-5.333333l3.2-6.4c28.8-52.266667 122.666667-152.533333 419.2-134.4h-23.466667-1.066666-1.066667H740.266667c-18.133333 1.066667-36.266667 2.133333-55.466667 3.2-7.466667 1.066667-16 2.133333-23.466667 3.2-3.2 0-6.4 1.066667-10.666666 1.066667-8.533333 1.066667-17.066667 3.2-25.6 4.266666-3.2 1.066667-5.333333 1.066667-8.533334 2.133334-3.2 1.066667-6.4 1.066667-8.533333 2.133333-2.133333 1.066667-4.266667 1.066667-6.4 2.133333-9.6 2.133333-18.133333 5.333333-26.666667 8.533334 0 0-1.066667 0-1.066666 1.066666-4.266667 2.133333-9.6 3.2-13.866667 5.333334-5.333333 2.133333-9.6 4.266667-13.866667 7.466666l-16 9.6c-2.133333 1.066667-3.2 2.133333-4.266666 3.2-3.2 2.133333-6.4 4.266667-9.6 5.333334-2.133333 1.066667-3.2 2.133333-5.333334 3.2-2.133333 2.133333-5.333333 3.2-7.466666 5.333333-2.133333 1.066667-3.2 2.133333-5.333334 3.2-2.133333 1.066667-4.266667 3.2-6.4 4.266667-1.066667 1.066667-3.2 2.133333-4.266666 3.2-2.133333 1.066667-4.266667 3.2-5.333334 4.266666-1.066667 1.066667-3.2 2.133333-4.266666 3.2-2.133333 1.066667-3.2 2.133333-4.266667 4.266667l-3.2 3.2c-1.066667 1.066667-3.2 2.133333-4.266667 4.266667l-3.2 3.2c-1.066667 1.066667-2.133333 2.133333-3.2 4.266666-1.066667 1.066667-2.133333 2.133333-2.133333 3.2l-3.2 3.2c-1.066667 1.066667-1.066667 2.133333-2.133333 3.2-1.066667 1.066667-1.066667 2.133333-2.133334 4.266667-23.466667 11.733333-23.466667 12.8-24.533333 13.866667-1.066667 1.066667-1.066667 2.133333-2.133333 4.266666 0 1.066667-1.066667 2.133333-1.066667 3.2 0 1.066667-1.066667 2.133333-1.066667 4.266667 0 1.066667-1.066667 2.133333-1.066666 3.2 0 1.066667-1.066667 3.2-1.066667 4.266667 0 1.066667 0 2.133333-1.066667 3.2v23.466666H620.8c-1.066667 0-3.2-1.066667-5.333333-2.133333h-1.066667c-2.133333-1.066667-5.333333-2.133333-7.466667-3.2 0 0-1.066667 0-1.066666-1.066667-3.2-1.066667-6.4-2.133333-8.533334-4.266666-1.066667 0-1.066667-1.066667-2.133333-1.066667-3.2-2.133333-6.4-3.2-9.6-5.333333h-1.066667l-9.6-6.4-1.066666-1.066667c-3.2-2.133333-5.333333-5.333333-7.466667-8.533333 0-1.066667-1.066667-1.066667-1.066667-2.133334-2.133333-3.2-4.266667-6.4-5.333333-9.6 0-1.066667 0-1.066667-1.066667-2.133333-1.066667-3.2-2.133333-7.466667-3.2-11.733333 0-3.2 0-6.4 1.066667-10.666667 0-1.066667 0-2.133333 1.066667-4.266667 0-1.066667 1.066667-2.133333 1.066666-3.2 1.066667-1.066667 1.066667-3.2 2.133334-5.333333 0-1.066667 1.066667-2.133333 2.133333-3.2 1.066667-2.133333 2.133333-3.2 3.2-5.333333 1.066667-1.066667 1.066667-2.133333 2.133333-3.2 1.066667-2.133333 3.2-4.266667 4.266667-5.333334 1.066667-1.066667 1.066667-2.133333 2.133333-3.2l7.466667-7.466666 1.066667-1.066667c3.2-3.2 6.4-5.333333 10.666666-8.533333l1.066667-1.066667c3.2-2.133333 6.4-4.266667 10.666667-7.466667 1.066667-1.066667 2.133333-1.066667 4.266666-2.133333 3.2-2.133333 6.4-3.2 9.6-5.333333 1.066667-1.066667 3.2-1.066667 5.333334-2.133334 3.2-2.133333 6.4-3.2 10.666666-4.266666 2.133333-1.066667 4.266667-1.066667 5.333334-2.133334 4.266667-1.066667 7.466667-3.2 11.733333-4.266666 2.133333-1.066667 4.266667-1.066667 6.4-2.133334l12.8-3.2c2.133333-1.066667 4.266667-1.066667 6.4-2.133333l16-3.2c2.133333 0 4.266667-1.066667 6.4-1.066667 6.4-1.066667 12.8-2.133333 20.266667-3.2h3.2c17.066667-2.133333 35.2-3.2 55.466666-3.2h2.133334c7.466667 0 14.933333 0 22.4 1.066667h13.866666c3.2 0 7.466667 0 10.666667 1.066667-1.066667 0-2.133333 0-4.266667-1.066667-10.666667-1.066667-35.2-4.266667-70.4-6.4H725.333333zM832 416c0-30.933333-26.666667-34.133333-26.666667-34.133333-14.933333-4.266667-29.866667 12.8-29.866666 12.8v-12.8h-43.733334v92.8h43.733334v-60.8c10.666667-8.533333 14.933333 1.066667 14.933333 1.066666v59.733334H832V416z m-2.133333 123.733333c-1.066667-2.133333-3.2-4.266667-6.4-5.333333-2.133333-1.066667-5.333333-2.133333-8.533334-2.133333-6.4 0-11.733333 2.133333-17.066666 7.466666V533.333333h-12.8v49.066667H800v-23.466667c0-4.266667 0-8.533333 1.066667-9.6 1.066667-2.133333 2.133333-3.2 3.2-4.266666 2.133333-1.066667 3.2-2.133333 5.333333-2.133334s3.2 0 4.266667 1.066667c1.066667 1.066667 2.133333 2.133333 2.133333 3.2 0 1.066667 1.066667 4.266667 1.066667 9.6v26.666667H832v-23.466667c0-4.266667 0-7.466667 1.066667-9.6 1.066667-2.133333 2.133333-4.266667 4.266666-5.333333 2.133333-1.066667 3.2-2.133333 5.333334-2.133334 3.2 0 4.266667 1.066667 6.4 3.2 1.066667 1.066667 1.066667 4.266667 1.066666 9.6v27.733334H864v-30.933334c0-4.266667 0-8.533333-1.066667-9.6-1.066667-3.2-3.2-5.333333-6.4-6.4-3.2-1.066667-6.4-2.133333-9.6-2.133333-3.2 0-6.4 1.066667-8.533333 2.133333-3.2-1.066667-5.333333 1.066667-8.533333 3.2z m57.6-158.933333c-24.533333 0-44.8 22.4-44.8 49.066667 0 26.666667 20.266667 49.066667 44.8 49.066666s44.8-22.4 44.8-49.066666c1.066667-26.666667-19.2-49.066667-44.8-49.066667z m0 59.733333c-5.333333 0-9.6-5.333333-9.6-10.666666 0-6.4 4.266667-10.666667 9.6-10.666667s9.6 5.333333 9.6 10.666667c1.066667 6.4-4.266667 10.666667-9.6 10.666666z m-234.666667 50.133334h0z m-125.866667 19.2z m224-16h-8.533333 8.533333z m-93.866666-3.2s1.066667 0 0 0c1.066667 0 1.066667 0 0 0 1.066667 0 0 0 0 0z m133.333333 8.533333h4.266667-4.266667z m0 0h-9.6-1.066667 10.666667z m4.266667 0h5.333333-5.333333z m9.6 1.066667h-5.333334 5.333334z m3.2 0h1.066666-3.2 2.133334z m3.2 0z m0 0z m0 0z m-3.2 0h-2.133334-1.066666H807.466667z m-1.066667 0z m4.266667 0h-2.133334 2.133334z m-6.4 0h0z m7.466666 0H810.666667h1.066666z m3.2 0H810.666667h4.266666z m-38.4-1.066667s1.066667 0 0 0z m-2.133333 0h0zM685.866667 405.333333c8.533333 0 10.666667 13.866667 10.666666 13.866667h-21.333333c0 1.066667 2.133333-13.866667 10.666667-13.866667z m62.933333 157.866667c1.066667-1.066667 4.266667-1.066667 7.466667-2.133333 4.266667-1.066667 6.4-1.066667 8.533333-2.133334v2.133334c0 3.2 0 5.333333-1.066667 6.4-1.066667 2.133333-2.133333 3.2-3.2 4.266666-2.133333 1.066667-4.266667 2.133333-7.466666 2.133334-2.133333 0-4.266667-1.066667-5.333334-2.133334-1.066667-1.066667-2.133333-3.2-2.133333-4.266666 0-2.133333 1.066667-3.2 3.2-4.266667z m142.933333-21.333333c3.2 0 5.333333 1.066667 7.466667 3.2 2.133333 2.133333 3.2 4.266667 3.2 8.533333h-21.333333c0-3.2 1.066667-6.4 3.2-8.533333 2.133333-2.133333 4.266667-3.2 7.466666-3.2z" p-id="3792" fill="#914fce"></path></svg>