<?xml version="1.0" standalone="no"?><!DOCTYPE svg PUBLIC "-//W3C//DTD SVG 1.1//EN" "http://www.w3.org/Graphics/SVG/1.1/DTD/svg11.dtd"><svg t="1496991693435" class="icon" style="" viewBox="0 0 1034 1024" version="1.1" xmlns="http://www.w3.org/2000/svg" p-id="3650" xmlns:xlink="http://www.w3.org/1999/xlink" width="48.46875" height="48"><defs><style type="text/css"></style></defs><path d="M522.666667 1024C240 1024 10.666667 794.666667 10.666667 512S240 0 522.666667 0s512 229.333333 512 512-229.333333 512-512 512z m347.733333-585.6c-13.866667-67.2-45.866667-124.8-92.8-173.866667-24.533333-25.6-52.266667-46.933333-84.266667-64-36.266667-20.266667-75.733333-34.133333-117.333333-40.533333-9.6-1.066667-19.2-3.2-28.8-4.266667h-55.466667c-9.6 1.066667-18.133333 3.2-27.733333 4.266667-26.666667 3.2-53.333333 10.666667-80 21.333333-51.2 20.266667-96 52.266667-132.266667 93.866667-42.666667 48-70.4 102.4-82.133333 165.333333-3.2 14.933333-4.266667 29.866667-6.4 43.733334 0 1.066667-1.066667 2.133333-1.066667 2.133333v50.133333c1.066667 9.6 3.2 20.266667 5.333334 29.866667 3.2 16 6.4 30.933333 9.6 45.866667h2.133333c11.733333-17.066667 23.466667-33.066667 34.133333-51.2 36.266667-56.533333 73.6-113.066667 107.733334-170.666667 27.733333-46.933333 52.266667-97.066667 77.866666-146.133333 8.533333-16 22.4-23.466667 39.466667-19.2 12.8 3.2 23.466667 16 23.466667 29.866666 0 17.066667-2.133333 34.133333-3.2 51.2-1.066667 9.6-2.133333 20.266667-2.133334 29.866667-1.066667 25.6-1.066667 52.266667-2.133333 77.866667 0 5.333333-1.066667 11.733333-1.066667 17.066666 0 28.8 0 57.6 2.133334 86.4 2.133333 41.6 5.333333 84.266667 17.066666 124.8 3.2 9.6 7.466667 18.133333 11.733334 27.733334 4.266667 8.533333 6.4 8.533333 14.933333 3.2 14.933333-11.733333 26.666667-27.733333 37.333333-42.666667 34.133333-51.2 61.866667-106.666667 88.533334-162.133333 12.8-26.666667 23.466667-53.333333 36.266666-80 5.333333-12.8 17.066667-19.2 34.133334-17.066667 10.666667 1.066667 23.466667 11.733333 25.6 23.466667 2.133333 9.6 2.133333 19.2 3.2 28.8 3.2 35.2 10.666667 70.4 21.333333 104.533333 9.6 30.933333 21.333333 60.8 40.533333 87.466667 2.133333 2.133333 3.2 5.333333 5.333334 7.466666 3.2 4.266667 2.133333 8.533333-1.066667 11.733334-3.2 4.266667-8.533333 3.2-11.733333 0-9.6-10.666667-20.266667-20.266667-29.866667-30.933334-26.666667-32-44.8-69.333333-60.8-107.733333-1.066667-1.066667-1.066667-3.2-2.133333-4.266667l-28.8 60.8c-23.466667 44.8-46.933333 89.6-76.8 130.133334-13.866667 19.2-28.8 37.333333-49.066667 49.066666-38.4 23.466667-81.066667 10.666667-103.466667-30.933333-14.933333-25.6-22.4-54.4-25.6-83.2-4.266667-35.2-7.466667-71.466667-9.6-106.666667-2.133333-26.666667-1.066667-52.266667-1.066666-78.933333 0-2.133333 0-5.333333-1.066667-7.466667-7.466667 12.8-13.866667 26.666667-21.333333 39.466667C330.666667 530.133333 292.266667 595.2 253.866667 661.333333c-8.533333 13.866667-17.066667 27.733333-26.666667 41.6-3.2 4.266667-2.133333 7.466667 0 10.666667 18.133333 26.666667 39.466667 50.133333 64 70.4 35.2 30.933333 75.733333 53.333333 120.533333 67.2 24.533333 7.466667 50.133333 10.666667 74.666667 16 1.066667 0 2.133333 1.066667 4.266667 1.066667h62.933333c1.066667 0 1.066667-1.066667 2.133333-1.066667 16-3.2 30.933333-4.266667 46.933334-8.533333 64-13.866667 118.4-44.8 165.333333-88.533334 22.4-20.266667 40.533333-43.733333 56.533333-69.333333 32-51.2 51.2-107.733333 54.4-168.533333 1.066667-29.866667-2.133333-61.866667-8.533333-93.866667z" p-id="3651" fill="#914fce"></path></svg>