<?xml version="1.0" standalone="no"?><!DOCTYPE svg PUBLIC "-//W3C//DTD SVG 1.1//EN" "http://www.w3.org/Graphics/SVG/1.1/DTD/svg11.dtd"><svg t="1496991648063" class="icon" style="" viewBox="0 0 1034 1024" version="1.1" xmlns="http://www.w3.org/2000/svg" p-id="3368" xmlns:xlink="http://www.w3.org/1999/xlink" width="48.46875" height="48"><defs><style type="text/css"></style></defs><path d="M522.666667 1024C240 1024 10.666667 794.666667 10.666667 512S240 0 522.666667 0s512 229.333333 512 512-229.333333 512-512 512z m-65.066667-739.2s-42.666667-108.8-98.133333-174.933333c-7.466667 85.333333 19.2 199.466667 19.2 199.466666s-34.133333-70.4-119.466667-74.666666c70.4 39.466667 97.066667 112 103.466667 131.2 40.533333-24.533333 88.533333-39.466667 138.666666-41.6-5.333333-18.133333-25.6-93.866667 10.666667-166.4-66.133333 50.133333-54.4 126.933333-54.4 126.933333z m64 68.266667c-157.866667 0-284.8 125.866667-284.8 281.6 0 155.733333 128 281.6 284.8 281.6 157.866667 0 284.8-125.866667 284.8-281.6 0-155.733333-126.933333-281.6-284.8-281.6z m0 533.333333C380.8 886.4 266.666667 773.333333 266.666667 634.666667c0-138.666667 114.133333-251.733333 254.933333-251.733334s254.933333 113.066667 254.933333 251.733334c0 138.666667-114.133333 251.733333-254.933333 251.733333zM392.533333 584.533333c-4.266667-6.4-9.6-11.733333-17.066666-13.866666-7.466667-3.2-19.2-4.266667-35.2-4.266667h-29.866667v146.133333h27.733333V650.666667c13.866667 0 24.533333-1.066667 29.866667-2.133334 9.6-2.133333 17.066667-7.466667 22.4-13.866666 5.333333-6.4 8.533333-14.933333 8.533333-25.6 0-9.6-2.133333-18.133333-6.4-24.533334z m93.866667 101.333334h-40.533333V566.4h-27.733334v146.133333h69.333334v-26.666666z m45.866667 25.6l11.733333-29.866667h60.8l11.733333 29.866667h28.8L588.8 565.333333h-28.8l-57.6 146.133334h29.866667z m26.666666-288c-88.533333 5.333333-49.066667 119.466667 49.066667 113.066666 96-5.333333 44.8-118.4-49.066667-113.066666z m150.4 142.933333L682.666667 618.666667l-27.733334-52.266667h-29.866666l43.733333 83.2v62.933333h28.8v-62.933333l43.733333-83.2h-32z m-115.2 88.533333H554.666667l20.266666-50.133333 19.2 50.133333zM362.666667 621.866667c-3.2 1.066667-7.466667 1.066667-14.933334 1.066666h-8.533333v-29.866666h7.466667c8.533333 0 14.933333 1.066667 18.133333 3.2 4.266667 2.133333 6.4 6.4 6.4 12.8 0 3.2-1.066667 6.4-2.133333 8.533333-1.066667 1.066667-3.2 3.2-6.4 4.266667z" p-id="3369" fill="#914fce"></path></svg>