<?xml version="1.0" standalone="no"?><!DOCTYPE svg PUBLIC "-//W3C//DTD SVG 1.1//EN" "http://www.w3.org/Graphics/SVG/1.1/DTD/svg11.dtd"><svg t="1496991680036" class="icon" style="" viewBox="0 0 1034 1024" version="1.1" xmlns="http://www.w3.org/2000/svg" p-id="3509" xmlns:xlink="http://www.w3.org/1999/xlink" width="48.46875" height="48"><defs><style type="text/css"></style></defs><path d="M522.666667 1024C240 1024 10.666667 794.666667 10.666667 512S240 0 522.666667 0s512 229.333333 512 512-229.333333 512-512 512z m173.866666-748.8c-65.066667 0-137.6 17.066667-206.933333 45.866667l-76.8-46.933334c-13.866667-8.533333-30.933333 2.133333-30.933333 19.2v83.2c-64 39.466667-119.466667 87.466667-156.8 139.733334-94.933333 132.266667-38.4 240 126.933333 240s375.466667-107.733333 470.4-240c94.933333-133.333333 39.466667-241.066667-125.866667-241.066667z m-34.133333 46.933333c-41.6 0-87.466667 8.533333-132.266667 23.466667l-17.066666-10.666667c55.466667-26.666667 113.066667-41.6 163.2-41.6 83.2 0 125.866667 42.666667 122.666666 106.666667-9.6-46.933333-57.6-77.866667-136.533333-77.866667z m26.666667 121.6l-140.8-86.4c34.133333-12.8 67.2-20.266667 98.133333-20.266666 101.333333 0 129.066667 80 61.866667 178.133333C641.066667 614.4 503.466667 693.333333 401.066667 693.333333c-101.333333 0-129.066667-80-61.866667-178.133333 11.733333-17.066667 26.666667-34.133333 42.666667-50.133333v167.466666c0 17.066667 17.066667 26.666667 30.933333 19.2l276.266667-169.6c13.866667-8.533333 13.866667-29.866667 0-38.4z m-307.2-22.4c-2.133333 2.133333-3.2 3.2-5.333334 4.266667 2.133333-2.133333 4.266667-3.2 5.333334-4.266667z m289.066666 184.533334C582.4 682.666667 465.066667 737.066667 371.2 737.066667c-83.2 0-125.866667-42.666667-122.666667-106.666667 9.6 48 57.6 78.933333 136.533334 78.933333 92.8-1.066667 201.6-42.666667 285.866666-103.466666z" p-id="3510" fill="#914fce"></path></svg>