<?xml version="1.0" standalone="no"?><!DOCTYPE svg PUBLIC "-//W3C//DTD SVG 1.1//EN" "http://www.w3.org/Graphics/SVG/1.1/DTD/svg11.dtd"><svg t="1496991536769" class="icon" style="" viewBox="0 0 1024 1024" version="1.1" xmlns="http://www.w3.org/2000/svg" p-id="2804" xmlns:xlink="http://www.w3.org/1999/xlink" width="48" height="48"><defs><style type="text/css"></style></defs><path d="M512 1024C229.333333 1024 0 794.666667 0 512S229.333333 0 512 0s512 229.333333 512 512-229.333333 512-512 512z m284.8-737.066667C734.933333 208 646.4 162.133333 554.666667 151.466667s-188.8 13.866667-266.666667 75.733333C209.066667 289.066667 162.133333 377.6 151.466667 469.333333s13.866667 188.8 75.733333 266.666667c61.866667 78.933333 150.4 124.8 242.133333 135.466667s188.8-13.866667 266.666667-75.733334c78.933333-61.866667 124.8-150.4 135.466667-242.133333 11.733333-91.733333-12.8-187.733333-74.666667-266.666667z m-4.266667 160s-1.066667-1.066667-2.133333-1.066666c-4.266667-3.2-10.666667-2.133333-13.866667 2.133333l-35.2 51.2-35.2 51.2c-1.066667 2.133333-2.133333 4.266667-2.133333 6.4l5.333333 60.8 5.333334 60.8v2.133333c2.133333 5.333333 7.466667 7.466667 12.8 6.4l38.4-12.8 9.6-3.2c-19.2 32-43.733333 59.733333-73.6 84.266667-26.666667 21.333333-55.466667 37.333333-86.4 48l11.733333-20.266667 20.266667-34.133333c0-1.066667 1.066667-1.066667 1.066666-2.133333 1.066667-5.333333-1.066667-10.666667-6.4-11.733334l-58.666666-17.066666-58.666667-17.066667c-2.133333-1.066667-4.266667-1.066667-7.466667 0L460.8 725.333333l-56.533333 24.533334c-1.066667 0-1.066667 1.066667-2.133334 1.066666-4.266667 3.2-5.333333 9.6-2.133333 13.866667l23.466667 32 13.866666 19.2c-66.133333-16-126.933333-52.266667-171.733333-109.866667l-3.2-3.2 22.4 4.266667 39.466667 6.4h3.2c5.333333 0 9.6-5.333333 9.6-10.666667l-1.066667-62.933333-3.2-60.8c0-2.133333-1.066667-4.266667-2.133333-6.4l-41.6-44.8-42.666667-44.8s-1.066667-1.066667-2.133333-1.066667c-4.266667-3.2-10.666667-2.133333-13.866667 3.2l-22.4 34.133334-5.333333 8.533333c-1.066667-17.066667 0-34.133333 2.133333-50.133333 6.4-51.2 24.533333-100.266667 54.4-142.933334l1.066667 11.733334 4.266666 40.533333v2.133333c2.133333 5.333333 7.466667 7.466667 12.8 6.4l58.666667-20.266666 58.666667-20.266667c2.133333-1.066667 4.266667-2.133333 5.333333-4.266667l32-52.266666 32-52.266667c0-1.066667 1.066667-1.066667 1.066667-2.133333 2.133333-5.333333-1.066667-10.666667-6.4-12.8l-38.4-12.8h-1.066667c42.666667-13.866667 87.466667-18.133333 131.2-12.8 17.066667 2.133333 33.066667 5.333333 49.066667 9.6l-11.733334 5.333333-37.333333 17.066667c-1.066667 0-1.066667 1.066667-2.133333 1.066666-4.266667 3.2-5.333333 9.6-2.133334 13.866667l37.333334 49.066667 37.333333 48c1.066667 2.133333 3.2 3.2 5.333333 4.266666l59.733334 13.866667 59.733333 13.866667h2.133333c5.333333 0 9.6-4.266667 9.6-9.6V325.333333c36.266667 46.933333 56.533333 100.266667 62.933334 155.733334l-27.733334-34.133334z m-150.4 90.666667l-24.533333-67.2-24.533333-67.2c-1.066667-4.266667-5.333333-6.4-9.6-6.4l-71.466667 3.2-71.466667 3.2c-4.266667 0-8.533333 3.2-9.6 7.466667L411.733333 480l-19.2 69.333333c-1.066667 4.266667 0 8.533333 4.266667 10.666667l59.733333 39.466667 58.666667 39.466666c3.2 2.133333 8.533333 3.2 11.733333 0l56.533334-44.8 56.533333-44.8c2.133333-3.2 3.2-7.466667 2.133333-11.733333z" p-id="2805" fill="#914fce"></path></svg>