<?xml version="1.0" standalone="no"?>
<!DOCTYPE svg PUBLIC "-//W3C//DTD SVG 1.1//EN" "http://www.w3.org/Graphics/SVG/1.1/DTD/svg11.dtd" >
<svg xmlns="http://www.w3.org/2000/svg">
<metadata>
Created by FontForge 20120731 at Fri Jun 23 13:19:41 2017
 By admin
</metadata>
<defs>
<font id="iconfont" horiz-adv-x="1024" >
  <font-face 
    font-family="iconfont"
    font-weight="500"
    font-stretch="normal"
    units-per-em="1024"
    panose-1="2 0 6 3 0 0 0 0 0 0"
    ascent="896"
    descent="-128"
    x-height="792"
    bbox="4 -128 1021 890"
    underline-thickness="0"
    underline-position="0"
    unicode-range="U+0078-E626"
  />
<missing-glyph 
 />
    <glyph glyph-name=".notdef" 
 />
    <glyph glyph-name=".notdef" 
 />
    <glyph glyph-name=".null" horiz-adv-x="0" 
 />
    <glyph glyph-name="nonmarkingreturn" horiz-adv-x="341" 
 />
    <glyph glyph-name="x" unicode="x" horiz-adv-x="1001" 
d="M281 543q-27 -1 -53 -1h-83q-18 0 -36.5 -6t-32.5 -18.5t-23 -32t-9 -45.5v-76h912v41q0 16 -0.5 30t-0.5 18q0 13 -5 29t-17 29.5t-31.5 22.5t-49.5 9h-133v-97h-438v97zM955 310v-52q0 -23 0.5 -52t0.5 -58t-10.5 -47.5t-26 -30t-33 -16t-31.5 -4.5q-14 -1 -29.5 -0.5
t-29.5 0.5h-32l-45 128h-439l-44 -128h-29h-34q-20 0 -45 1q-25 0 -41 9.5t-25.5 23t-13.5 29.5t-4 30v167h911zM163 247q-12 0 -21 -8.5t-9 -21.5t9 -21.5t21 -8.5q13 0 22 8.5t9 21.5t-9 21.5t-22 8.5zM316 123q-8 -26 -14 -48q-5 -19 -10.5 -37t-7.5 -25t-3 -15t1 -14.5
t9.5 -10.5t21.5 -4h37h67h81h80h64h36q23 0 34 12t2 38q-5 13 -9.5 30.5t-9.5 34.5q-5 19 -11 39h-368zM336 498v228q0 11 2.5 23t10 21.5t20.5 15.5t34 6h188q31 0 51.5 -14.5t20.5 -52.5v-227h-327z" />
    <glyph glyph-name="collect-default" unicode="&#xe612;" 
d="M505 -27v0q-10 0 -17 7l-384 371q-78 84 -78 197q0 119 84 203t203 84q110 0 192 -73q82 73 192 73q118 0 202.5 -84t84.5 -203q0 -113 -77 -196l-385 -372q-7 -7 -17 -7v0zM313 787q-99 0 -169 -70t-70 -169q0 -94 64 -163l367 -355l368 356q63 68 63 162q0 99 -70 169
t-169 70q-103 0 -175 -75q-6 -7 -17 -7t-17 7q-72 75 -175 75z" />
    <glyph glyph-name="wallet-active" unicode="&#xe613;" 
d="M537 198q23 8 37 28t14 44q0 17 -12.5 28.5t-38.5 23.5v-124zM842 779h-661q-73 0 -125 -52.5t-52 -125.5v-458q0 -73 52 -125.5t125 -52.5h661q74 0 126 52.5t52 125.5v458q0 67 -53 122.5t-125 55.5zM639 270q0 -45 -29 -80t-73 -44v-28h-51v28q-43 9 -72 44t-29 80h51
q0 -24 14 -44t36 -28v144q-46 18 -73.5 41.5t-27.5 64.5q0 46 29 81t72 44v53h51v-53q44 -9 73 -44t29 -81h-51q0 25 -14 44.5t-37 27.5v-143q47 -18 74.5 -41.5t27.5 -65.5zM436 448q0 -17 12.5 -28.5t37.5 -22.5v123q-22 -8 -36 -27.5t-14 -44.5z" />
    <glyph glyph-name="wallet-default" unicode="&#xe614;" 
d="M843 802h-661q-74 0 -126 -52.5t-52 -125.5v-458q0 -73 52 -125.5t126 -52.5h661q73 0 125.5 52.5t52.5 125.5v458q0 73 -52.5 125.5t-125.5 52.5zM970 166q0 -52 -37.5 -89.5t-89.5 -37.5h-661q-53 0 -90 37.5t-37 89.5v458q0 52 37 89.5t90 37.5h661q52 0 89.5 -37.5
t37.5 -89.5v-458zM589 471h51q0 46 -29 81t-73 44v53h-51v-53q-44 -9 -73 -44t-29 -81q0 -41 27.5 -64.5t74.5 -41.5v-144q-22 8 -36.5 28t-14.5 44h-51q0 -45 29 -80t73 -44v-28h51v28q44 9 73 44t29 80q0 41 -27.5 64.5t-74.5 42.5v143q22 -8 36.5 -27.5t14.5 -44.5z
M487 420q-26 11 -38.5 22.5t-12.5 28.5q0 25 14.5 44.5t36.5 27.5v-123zM589 293q0 -24 -14.5 -44t-36.5 -28v124q26 -12 38.5 -23.5t12.5 -28.5z" />
    <glyph glyph-name="promo-default" unicode="&#xe615;" 
d="M854 -7h-691q-26 0 -44 17.5t-18 43.5v443q0 26 18 44t44 18h274q-34 20 -59 44q-25 25 -38 54t-14.5 43t-0.5 25q1 27 20 56.5t60 40.5q56 15 103 -23q48 38 103 23q42 -11 61 -40.5t20 -56.5q1 -11 -0.5 -25t-15 -43t-37.5 -54q-25 -24 -59 -44h274q25 0 43.5 -18
t18.5 -44v-443q0 -26 -18.5 -43.5t-43.5 -17.5zM157 54q0 -6 6 -6h317v305h-323v-299zM163 503q-6 0 -6 -6v-89h323v95h-317zM599 643q18 18 27 38t10 27.5t0 11.5v2v1q-1 10 -6 20q-10 19 -33 25q-33 9 -61 -19q-11 -11 -27.5 -11t-28.5 11q-27 28 -60 19q-24 -6 -33 -25
q-6 -10 -6 -20v-2v-1q-3 -38 37 -77q35 -36 90 -58q56 22 91 58zM860 497q0 6 -6 6h-318v-95h324v89zM860 353h-324v-305h318q6 0 6 6v299z" />
    <glyph glyph-name="promo-active" unicode="&#xe616;" 
d="M854 -7h-691q-26 0 -44 17.5t-18 43.5v443q0 26 18 44t44 18h274q-34 20 -59 44q-25 25 -38 54t-14.5 43t-0.5 25q1 27 20 56.5t60 40.5q56 15 103 -23q48 38 103 23q42 -11 61 -40.5t20 -56.5q1 -11 -0.5 -25t-15 -43t-37.5 -54q-25 -24 -59 -44h274q25 0 43.5 -18
t18.5 -44v-443q0 -26 -18.5 -43.5t-43.5 -17.5zM599 643q18 18 27 38t10 27.5t0 11.5v2v1q-1 10 -6 20q-10 19 -33 25q-33 9 -61 -19q-11 -11 -27.5 -11t-28.5 11q-27 28 -60 19q-24 -6 -33 -25q-6 -10 -6 -20v-2v-1q-3 -38 37 -77q35 -36 90 -58q56 22 91 58z" />
    <glyph glyph-name="collect-active" unicode="&#xe617;" 
d="M505 -27v0q-10 0 -17 7l-384 371q-78 84 -78 197q0 119 84 203t203 84q110 0 192 -73q82 73 192 73q118 0 202.5 -84t84.5 -203q0 -113 -77 -196l-385 -372q-7 -7 -17 -7v0z" />
    <glyph glyph-name="home-active" unicode="&#xe618;" 
d="M520 863l-427 -312v-595h313v226q0 47 33.5 80.5t81 33.5t80.5 -33.5t33 -80.5v-226h313v595z" />
    <glyph glyph-name="home-default" unicode="&#xe61a;" 
d="M511 862l-427 -312v-595h313v226q0 47 33.5 80.5t81 33.5t80.5 -33.5t33 -80.5v-226h313v595zM881 11h-199v170q0 71 -50 120.5t-120.5 49.5t-120.5 -49.5t-50 -120.5v-170h-200v510l370 270l370 -270v-510z" />
    <glyph glyph-name="user-default" unicode="&#xe61b;" 
d="M750 212h-509q-82 0 -140 -58t-58 -140v-142h56v142q0 59 41.5 100.5t100.5 41.5h509q59 0 100.5 -41.5t41.5 -100.5v-142h56v142q0 82 -58 140t-140 58zM495.5 268q128.5 0 220 91.5t91.5 220t-91.5 219.5t-220 91t-220 -91t-91.5 -219.5t91.5 -220t220 -91.5z
M495.5 834q105.5 0 180 -74.5t74.5 -180t-74.5 -180t-180 -74.5t-180 74.5t-74.5 180t74.5 180t180 74.5z" />
    <glyph glyph-name="user-acive" unicode="&#xe61c;" 
d="M750 212h-509q-82 0 -140 -58t-58 -140v-142h905v142q0 82 -58 140t-140 58zM495.5 268q128.5 0 220 91.5t91.5 220t-91.5 219.5t-220 91t-220 -91t-91.5 -219.5t91.5 -220t220 -91.5z" />
    <glyph glyph-name="transfer" unicode="&#xe619;" 
d="M790 757l172 35l-9 45l-228 -46q-8 -2 -13.5 -8t-5.5 -14v-229h46v188q84 -57 133.5 -150.5t49.5 -197.5q0 -112 -55 -206.5t-150 -149.5t-207 -55v-46q93 0 178 36t146 97.5t97.5 146t36.5 177.5q0 112 -51.5 212.5t-139.5 164.5zM294 220v-182q-85 57 -134 148t-49 194
q0 112 55.5 206.5t150.5 149.5t206 55v46q-93 0 -177.5 -36t-146 -97.5t-97.5 -146t-36 -177.5q0 -113 52.5 -212.5t144.5 -163.5l-179 -36l9 -45l229 46q8 2 13 8t5 14v229h-46z" />
    <glyph glyph-name="message" unicode="&#xe61d;" 
d="M67 685v-516q0 -68 47.5 -116t115.5 -48h605q67 0 115 48t48 116v516h-931zM951 638v-103l-419 -199l-419 199v103h838zM835 52h-605q-48 0 -82.5 34.5t-34.5 82.5v315l419 -200l419 200v-315q0 -48 -34 -82.5t-82 -34.5z" />
    <glyph glyph-name="help" unicode="&#xe61e;" 
d="M521 852q-97 0 -185.5 -37.5t-152.5 -101.5t-102 -152.5t-38 -185.5t38 -185.5t102 -152.5t152.5 -102t185.5 -38t185.5 38t152.5 102t102 152.5t38 185.5t-38 185.5t-102 152.5t-152.5 101.5t-185.5 37.5zM520.5 -55q-116.5 0 -215.5 57.5t-156.5 156.5t-57.5 215.5
t57.5 215.5t156.5 157t215.5 58t216 -58t157 -157t57.5 -215.5t-57.5 -215.5t-157 -156.5t-216 -57.5zM521 661q-69 0 -118.5 -49t-49.5 -118h48q0 50 35 85t84.5 35t84.5 -35t35 -84.5t-35 -84.5t-84 -35q-10 0 -17 -7t-7 -17v-72h48v50q61 9 102 56t41 109q0 69 -49 118
t-118 49zM473 88h96v96h-96v-96z" />
    <glyph glyph-name="history" unicode="&#xe61f;" 
d="M515 869q-96 0 -184 -37.5t-151.5 -101t-101.5 -151.5t-38 -184.5t38 -184.5t101.5 -151.5t151.5 -101t184 -37.5t184 37.5t152 101t101.5 151.5t37.5 184.5t-37.5 184.5t-101.5 151.5t-152 101t-184 37.5zM515 -33q-116 0 -214.5 57.5t-155.5 156t-57 214t57 214
t155.5 155.5t214.5 57t214.5 -57t155.5 -155.5t57 -214t-57 -214t-155.5 -156t-214.5 -57.5zM491 418h-308v-47h332q10 0 17 7t7 16v333h-48v-309z" />
    <glyph glyph-name="deposit" unicode="&#xe620;" 
d="M523 552q0 12 -8.5 20.5t-20.5 8.5t-20.5 -8.5t-8.5 -20.5v-29q-47 0 -81 -33.5t-34 -81t34 -81t81 -33.5h58q23 0 40 -17t17 -41q0 -23 -18.5 -40t-42.5 -17h-54q-24 0 -40.5 16.5t-16.5 40.5q0 12 -8.5 20.5t-20.5 8.5t-20.5 -8.5t-8.5 -20.5q0 -47 34 -81t81 -34v-28
q0 -12 8.5 -20.5t20.5 -8.5t20.5 8.5t8.5 20.5v28q47 2 81 35.5t34 79.5q0 48 -34 81.5t-81 33.5h-58q-24 0 -40.5 17t-16.5 40.5t16.5 40.5t40.5 17h58q23 0 40 -17t17 -40q0 -12 8.5 -20.5t20.5 -8.5t20.5 8.5t8.5 20.5q0 47 -34 80.5t-81 33.5v29zM763 606l212 239
l-42 39l-212 -238l-9 168l-57 -2l12 -239q0 -12 9 -20q9 -7 20 -7h1l239 12l-3 58zM873 57q0 -47 -41 -82.5t-90 -35.5h-544q-49 0 -83 34.5t-34 83.5v551q0 49 34 83.5t83 34.5h346v47h-346q-68 0 -116 -48.5t-48 -116.5v-551q0 -68 48 -117t116 -49h544q69 0 123.5 49.5
t54.5 116.5v356h-47v-356z" />
    <glyph glyph-name="withdrawal" unicode="&#xe621;" 
d="M517 555q0 12 -8.5 20.5t-20 8.5t-20 -8.5t-8.5 -20.5v-28q-47 0 -80 -33t-33 -79.5t33 -79.5t80 -33h57q23 0 39.5 -16.5t16.5 -40.5q0 -22 -18 -39t-42 -17h-53q-23 0 -39.5 16.5t-16.5 39.5q0 12 -8.5 20.5t-20 8.5t-20 -8.5t-8.5 -20.5q0 -46 33 -79t80 -33v-29
q0 -11 8.5 -19.5t20 -8.5t20 8.5t8.5 19.5v29q46 1 79 34t33 78q0 47 -33 80t-79 33h-57q-23 0 -39.5 16.5t-16.5 40t16.5 40t39.5 16.5h57q23 0 39.5 -16.5t16.5 -40.5q0 -11 8 -19.5t20 -8.5t20 8.5t8 19.5q0 47 -33 80t-79 33v28zM956 823q0 11 -9 19q-8 8 -19 8h-1
l-234 -7l1 -56l168 5l-214 -230l41 -39l213 229l5 -165l56 1zM861 70q0 -47 -40.5 -81.5t-89.5 -34.5h-533q-48 0 -81.5 34t-33.5 82v540q0 48 33.5 82t81.5 34h339v46h-339q-67 0 -114 -47.5t-47 -114.5v-540q0 -67 47 -115t114 -48h533q68 0 121.5 48.5t53.5 114.5v349
h-45v-349z" />
    <glyph glyph-name="language" unicode="&#xe622;" 
d="M523.5 877q-100.5 0 -192.5 -39t-158 -105.5t-105.5 -158t-39.5 -192t39.5 -192t105.5 -157.5t158 -105.5t192.5 -39.5t192 39.5t158 105.5t105.5 157.5t39 192t-39 192t-105.5 158t-158 105.5t-192 39zM759 761q10 -32 3.5 -55.5t-34.5 -52.5q-18 -19 -106 -68
q-29 -16 -43.5 -24.5t-38 -23t-34.5 -24t-23 -22.5t-16 -25t-2 -25q2 -10 8 -18q-6 5 -13 7q-43 8 -68 13.5t-62 20.5t-59 34q-16 13 -17 29q-1 14 11 35.5t23.5 34.5t31.5 36q21 23 30 34.5t15.5 27.5t1.5 29q-12 31 -66 45q103 59 222 59q128 0 236 -67zM523.5 -62
q-90.5 0 -173 35t-142.5 95t-95 142t-35 173q0 102 44 192.5t120 152.5q60 -6 76 -19q-5 -10 -35 -43q-25 -28 -38.5 -44.5t-27.5 -45t-12 -52.5q2 -36 33 -63q27 -24 69 -41t69.5 -23.5t73.5 -15.5q28 -5 39 -8q-14 -18 -21.5 -30.5t-13 -32t-1.5 -36.5q12 -42 80 -70
q13 -5 22 -25t12.5 -36.5t8.5 -44.5q3 -22 5.5 -32.5t7 -24.5t12 -20.5t18.5 -9.5h8q18 0 37 18t43 55q17 25 70 50q20 10 30.5 16t26 19.5t21 28.5t6 40t-10.5 55q-10 31 -44.5 56.5t-80 40.5t-74 22t-52.5 11q-15 2 -28 5t-21 5.5t-15 5t-10.5 4t-6 3.5t-3.5 2.5l-1 0.5v0
q3 21 132 93q95 53 118 76q49 52 50 101q72 -62 113.5 -149.5t41.5 -186.5q0 -91 -35.5 -173t-95 -142t-142 -95t-173 -35zM531 347q8 9 12 15q7 9 7 20q18 -4 41 -8q81 -13 142 -40.5t70 -55.5q8 -24 9.5 -39.5t-7.5 -26.5t-18 -16.5t-31 -16.5q-21 -10 -33 -16.5
t-29 -20.5t-28 -31q-20 -31 -34 -44q-3 10 -7.5 38.5t-8 44.5t-11.5 39.5t-21.5 38.5t-32.5 22q-45 18 -50 37q-4 15 30 60z" />
    <glyph glyph-name="fontsize" unicode="&#xe623;" 
d="M960 862h-703q-9 0 -16 -7t-7 -17v-119h47v95h304v-863h-93v-48h234v48h-94v863h305v-95h46v119q0 10 -6.5 17t-16.5 7zM432 383h-366q-5 0 -8.5 -3.5t-3.5 -8.5v-60h24v48h159v-432h-49v-24h122v24h-49v432h158v-48h25v60q0 5 -3.5 8.5t-8.5 3.5z" />
    <glyph glyph-name="close" unicode="&#xe624;" 
d="M908 764l-28 29l-368 -368l-368 368l-28 -29l368 -368l-368 -368l28 -28l368 368l368 -368l28 28l-368 368z" />
    <glyph glyph-name="denglu_icon" unicode="&#xe625;" 
d="M753 283h-444q-72 0 -123 -51t-51 -123v-225h50v225q0 52 36 88.5t88 36.5h444q52 0 88 -36.5t36 -88.5v-225h49v225q0 72 -50.5 123t-122.5 51zM531 333q112 0 192 80t80 193.5t-80 193.5t-192 80t-192 -80t-80 -193.5t80 -193.5t192 -80zM531 831q92 0 157 -66
t65 -158.5t-65 -158t-157 -65.5t-157 65.5t-65 158t65 158.5t157 66z" />
    <glyph glyph-name="mima_icon" unicode="&#xe626;" 
d="M929 442h-75v149q0 124 -89 211.5t-214.5 87.5t-214 -87.5t-88.5 -211.5v-149h-76q-10 0 -17.5 -7t-7.5 -18v-348q0 -71 51.5 -122t124.5 -51h455q73 0 124.5 51t51.5 122v348q0 11 -7 18t-18 7zM298 591q0 103 74 176t178.5 73t178.5 -73t74 -176v-149h-505v149zM904 69
q0 -51 -37 -87.5t-89 -36.5h-455q-52 0 -89 36.5t-37 87.5v323h707v-323z" />
  </font>
</defs>
</svg>
